PathFileType	4	(X/Y/Z)	s11c0402.trc
DataRate	CameraRate	NumFrames	NumMarkers	Units	OrigDataRate	OrigDataStartFrame	OrigNumFrames
200	200	5	48	mm	200	500	2000
Frame#	Time	racr			lacr			c7			jug			rlel			rdr			llel			ldr			s2			lic			ric			lasi			rasi			rpsi			lpsi			rgt			lgt			rth1			rth2			rth3			rth4			rlfc			rmfc			rsh1			rsh2			rsh3			rsh4			rlmal			rcal			rtoe			rmt5			lth1			lth2			lth4			lth3			llfc			lmfc			llmal			lcal			lmt5			lsh1			lsh2			lsh3			lsh4			ltoe			SBIKE			LBIKE			RBIKE			
		X1	Y1	Z1	X2	Y2	Z2	X3	Y3	Z3	X4	Y4	Z4	X5	Y5	Z5	X6	Y6	Z6	X7	Y7	Z7	X8	Y8	Z8	X9	Y9	Z9	X10	Y10	Z10	X11	Y11	Z11	X12	Y12	Z12	X13	Y13	Z13	X14	Y14	Z14	X15	Y15	Z15	X16	Y16	Z16	X17	Y17	Z17	X18	Y18	Z18	X19	Y19	Z19	X20	Y20	Z20	X21	Y21	Z21	X22	Y22	Z22	X23	Y23	Z23	X24	Y24	Z24	X25	Y25	Z25	X26	Y26	Z26	X27	Y27	Z27	X28	Y28	Z28	X29	Y29	Z29	X30	Y30	Z30	X31	Y31	Z31	X32	Y32	Z32	X33	Y33	Z33	X34	Y34	Z34	X35	Y35	Z35	X36	Y36	Z36	X37	Y37	Z37	X38	Y38	Z38	X39	Y39	Z39	X40	Y40	Z40	X41	Y41	Z41	X42	Y42	Z42	X43	Y43	Z43	X44	Y44	Z44	X45	Y45	Z45	X46	Y46	Z46	X47	Y47	Z47	X48	Y48	Z48	
500	2.5000	799.679499	1351.671014	-92.926575	791.550469	1362.694587	-441.323188	769.827026	1455.463390	-267.003565	752.674166	1269.484025	-273.291904	613.064636	1157.693544	33.528363	763.137849	962.355667	-67.457497	562.440870	1163.056737	-568.884017	755.411537	949.044115	-477.224050	162.216932	1278.744678	-233.008434	364.721486	1291.236445	-452.925302	387.295340	1220.719869	-52.983030	381.675984	1207.805164	-417.015222	403.726901	1162.038090	-95.527403	228.237539	1336.046697	-176.565867	212.375605	1342.212328	-265.099710	272.058825	1086.816690	-47.770153	281.960982	1173.022622	-467.859532	297.281163	958.490096	-46.247122	333.994696	877.763274	-59.118223	325.873634	792.919680	-80.209557	369.199898	885.277705	-67.530857	347.751579	693.991256	-105.491716	326.714098	677.888583	-229.749834	288.461952	548.845041	-84.011782	280.436419	461.946437	-98.700049	232.373383	389.320380	-96.059340	304.855812	455.802955	-129.384221	179.691497	261.218025	-102.661532	114.105879	266.405063	-148.660257	372.484865	139.245308	-149.812911	299.001875	135.964117	-78.674381	407.358756	1082.424065	-485.625451	485.082984	1046.451220	-480.503790	503.603146	1072.270329	-469.204813	537.124541	972.939460	-484.387099	624.981548	875.502744	-463.745453	637.650190	859.084328	-330.568874	263.671880	648.027019	-424.592009	199.140691	668.116518	-388.809264	275.207771	474.076678	-452.851351	525.233520	811.041602	-476.127829	470.647222	746.257012	-459.249215	388.647400	714.467093	-451.218792	491.762958	723.023671	-437.743689	349.828484	410.317558	-385.844587	-214.763737	953.688988	-256.179270	-17.698663	80.869103	-460.906313	-17.777477	80.756330	-61.948312	
501	2.5050	799.959226	1352.696497	-94.659481	790.010263	1363.320204	-443.485512	769.412135	1455.718248	-268.768753	752.373105	1269.736486	-274.977178	615.019056	1158.298729	32.841162	763.689292	961.721986	-67.917899	561.284501	1162.527881	-570.080658	755.518772	949.274572	-478.427617	162.704741	1278.906152	-230.411757	362.964334	1292.511492	-452.885102	389.005094	1220.733139	-53.229755	380.572752	1209.156225	-416.308765	404.446867	1162.488859	-96.484360	230.145878	1335.974826	-175.543405	213.106750	1342.585030	-264.958437	272.090377	1086.808809	-47.755443	281.676283	1174.710626	-467.246327	295.517607	958.799657	-44.896996	331.685614	877.574452	-58.283825	322.317312	792.678680	-79.102826	366.837709	884.644626	-66.945174	343.981419	693.274723	-105.063598	323.386104	677.427271	-229.735170	282.965303	549.057480	-83.545231	274.038217	462.187663	-98.290034	225.188223	390.135675	-95.691030	298.376018	455.718855	-129.044495	171.546084	262.305887	-102.458094	106.354819	268.535935	-148.546667	362.575311	137.139237	-149.759832	289.059596	135.181404	-78.580835	407.968635	1084.839772	-485.000599	486.020422	1049.787390	-479.627886	504.277365	1075.878949	-468.500900	538.838979	977.012124	-483.870965	629.147719	881.277350	-463.235778	641.880514	864.320881	-329.339967	270.243548	648.773969	-423.847606	204.891325	667.681578	-388.472067	285.522587	475.484561	-452.889222	530.021909	814.226425	-475.212554	476.165017	749.042268	-458.071921	394.532875	716.192593	-450.363258	497.469186	725.971164	-436.446285	361.051331	413.149908	-385.917107	-214.843104	953.679093	-256.198323	-17.711643	80.918555	-460.896147	-17.786603	80.765849	-61.929984	
502	2.5100	800.144577	1353.455641	-96.184157	788.524614	1363.663254	-445.539431	768.890665	1455.519878	-270.528927	751.881052	1269.763085	-276.536055	616.813187	1158.781989	32.329352	764.119317	961.026570	-68.386299	560.043297	1161.986242	-571.403234	755.410452	949.474631	-479.598197	162.051975	1280.377146	-227.964066	361.371756	1293.722626	-452.661651	391.295450	1221.138955	-52.741131	379.556020	1210.476060	-415.663154	405.253234	1163.266427	-97.369202	231.166868	1336.438421	-173.860410	212.929220	1343.590020	-263.102884	272.540845	1087.178953	-47.511183	281.615548	1176.214096	-466.386663	293.947174	959.922730	-43.773983	329.860794	877.880502	-57.568255	319.603513	792.938868	-77.988262	365.372077	884.636758	-66.554818	340.915724	692.986412	-104.618552	321.273530	677.195811	-229.553250	278.113990	549.710473	-83.077885	268.255529	462.978285	-97.866625	218.567883	391.358538	-95.523860	292.681682	456.148305	-128.492963	163.693393	264.101132	-102.503929	99.020612	271.474555	-148.599998	352.571067	135.498092	-149.629189	279.037766	134.747371	-78.436010	408.383001	1087.036202	-484.386773	486.691992	1052.832732	-478.767460	504.985616	1079.254328	-467.753393	540.276586	980.437780	-483.212486	632.882464	886.503254	-462.251626	645.965641	869.453943	-327.411084	276.566915	648.880022	-422.992427	210.451279	666.281036	-387.854668	295.729404	476.357302	-452.881025	534.462184	816.981047	-474.202571	481.403408	751.311055	-456.891745	400.200547	717.371064	-449.415262	502.948456	728.617409	-435.041686	372.455794	415.570417	-385.940314	-214.821131	953.650767	-256.030775	-17.720441	80.921189	-460.897837	-17.793501	80.772807	-61.947067	
503	2.5150	800.247317	1354.140052	-97.784002	787.118547	1363.711877	-447.523573	768.845066	1454.896138	-271.599949	751.147812	1269.647207	-278.033030	618.445912	1159.077241	31.845854	764.428470	960.505302	-68.918044	558.799052	1161.547810	-572.811090	755.162762	949.580394	-480.463523	162.358177	1281.786589	-226.809097	359.948679	1294.891727	-452.348087	393.184035	1221.559459	-52.918132	378.663761	1211.736521	-415.132493	406.108795	1163.926067	-98.087120	231.860410	1337.395510	-172.390508	212.891707	1344.513898	-260.417493	273.372275	1088.159114	-47.089380	281.491989	1177.725739	-465.595981	294.609476	960.482134	-42.991582	328.958283	878.668735	-57.003335	317.690907	793.864238	-76.969396	364.425007	884.848198	-66.077328	338.618640	693.180279	-103.987720	320.483676	677.303746	-229.073008	274.101625	550.696860	-82.537466	263.115722	464.166508	-97.539533	212.595604	393.199474	-95.347937	286.773842	457.132198	-128.212394	156.339762	266.754220	-102.534331	91.858653	275.499549	-148.701599	342.742833	134.163010	-149.463977	269.168787	135.097504	-78.367256	408.668040	1089.058402	-483.782732	487.323374	1055.734390	-477.976867	505.173557	1082.543429	-467.134066	541.414721	983.771624	-482.203010	635.950757	891.221252	-461.124277	648.735764	874.101930	-326.724330	282.666222	648.215624	-422.104840	215.642954	664.153451	-387.133595	305.832265	476.667299	-452.923317	538.211005	819.851516	-473.581032	486.342465	753.233877	-455.699463	405.577696	718.163531	-448.489164	508.080995	730.883726	-433.767911	383.614577	417.298982	-386.112753	-214.873292	953.654800	-256.063319	-17.729169	80.932443	-460.910252	-17.808002	80.779146	-61.934529	
504	2.5200	800.324828	1354.384748	-98.948800	785.816344	1363.551621	-449.512470	768.739398	1454.105212	-273.029359	750.298630	1269.290064	-279.410079	619.929053	1159.301269	31.448270	764.625565	959.848392	-69.286755	557.572456	1161.103073	-574.308663	754.772423	949.672378	-481.155670	162.752963	1282.717605	-225.730840	358.736074	1296.025015	-451.911836	394.567717	1221.895303	-53.857030	377.906713	1212.993889	-414.680596	406.955533	1164.906469	-98.917057	232.395765	1338.409503	-171.118072	212.766873	1345.897924	-259.777155	273.669323	1089.978927	-45.469187	281.315564	1179.438309	-465.346596	295.051636	961.658873	-42.371160	328.702129	879.767975	-56.530839	316.796154	794.869196	-76.272270	363.828221	886.464904	-65.974244	337.248199	693.750022	-103.232429	320.767347	677.581831	-228.411070	271.044131	552.213976	-82.022895	258.868365	465.878992	-97.271803	207.166015	395.622473	-95.307004	282.485090	458.447213	-127.752417	149.299835	270.159657	-102.514455	85.358089	280.146059	-148.897268	332.988188	133.453988	-149.292723	259.251606	136.035398	-78.156696	408.879978	1090.955417	-483.094716	487.761468	1058.284200	-477.130082	505.210118	1085.295220	-466.468845	542.779403	987.098676	-480.302273	638.239471	895.463260	-460.057943	651.063410	878.769835	-325.676699	288.493967	646.865204	-421.196369	220.678960	661.269931	-386.298157	315.782302	476.207683	-452.548804	541.815444	822.247250	-472.385519	490.949734	754.748865	-454.472427	410.745996	718.485773	-447.413465	512.931505	732.821960	-432.347198	394.857716	418.718046	-386.232054	-214.937763	953.654300	-256.117144	-17.734349	80.933254	-460.892599	-17.811941	80.805053	-61.960609	
